PathFileType	4	(X/Y/Z)	Patient4_TMGait_0pt7_01_left_19.trc.trc
DataRate	CameraRate	NumFrames	NumMarkers	Units	OrigDataRate	OrigDataStartFrame	OrigNumFrames
86.419753086420	86.419753086420	4	33	mm	86.419753086420	18	       141
Frame#	Time	Sacral			L.Shoulder			Chest			R.Shoulder			Neck			R.ASIS			L.ASIS			R.Thigh.Superior			R.Thigh.Lateral			R.Thigh.Inferior			R.Patella			L.Thigh.Superior			L.Thigh.Lateral			L.Thigh.Inferior			L.Patella			L.Shank.Superior			L.Shank.Lateral			L.Shank.Inferior			R.Shank.Superior			R.Shank.Lateral			R.Shank.Inferior			R.Heel			R.Midfoot.Superior			R.Midfoot.Lateral			R.Toe			L.Heel			L.Midfoot.Lateral			L.Midfoot.Superior			L.Toe			L.Elbow			L.Wrist			R.Elbow			R.Wrist			
		X1	Y1	Z1	X2	Y2	Z2	X3	Y3	Z3	X4	Y4	Z4	X5	Y5	Z5	X6	Y6	Z6	X7	Y7	Z7	X8	Y8	Z8	X9	Y9	Z9	X10	Y10	Z10	X11	Y11	Z11	X12	Y12	Z12	X13	Y13	Z13	X14	Y14	Z14	X15	Y15	Z15	X16	Y16	Z16	X17	Y17	Z17	X18	Y18	Z18	X19	Y19	Z19	X20	Y20	Z20	X21	Y21	Z21	X22	Y22	Z22	X23	Y23	Z23	X24	Y24	Z24	X25	Y25	Z25	X26	Y26	Z26	X27	Y27	Z27	X28	Y28	Z28	X29	Y29	Z29	X30	Y30	Z30	X31	Y31	Z31	X32	Y32	Z32	X33	Y33	Z33	

18	21.996714285714	821.757461842507	1005.308559009930	527.360112770482	1001.995324034315	1429.496393760898	340.190630588959	1115.971844603620	1351.209289374007	489.969837579092	1053.803895949527	1427.207331155028	670.509645568408	1022.330049208186	1486.239356032084	496.753117670963	1051.808862978013	941.618144161005	634.900268942060	1026.424720773575	951.006832612339	358.751043715979	1051.274097773970	729.795659615235	610.498484249379	946.176799956812	634.753731555539	669.126439955788	1008.820104877045	570.449898108131	590.629529477794	991.289830159131	486.370561089675	594.072026680199	1100.832769465902	776.017947334175	383.374128868525	1058.131057599493	648.427469730096	296.997591852924	1166.878589563257	593.206824302527	353.330683833261	1199.112044164116	533.914451287855	346.963734761984	1189.824864377922	463.391300924290	335.216642555162	1138.400004069734	327.852628922123	282.373222704519	1239.683744148457	238.832990769859	329.849218880770	956.621351299047	401.307156725034	598.576344427961	876.128836932734	301.889878922474	657.056505496157	913.326271585202	205.867642115727	590.795505777527	771.268109900085	42.704553273318	554.792837576273	943.842659666166	97.603026234163	588.961546611618	856.029444732098	36.618147962018	627.645376278688	1063.803417004117	45.516916965501	612.970075157030	1179.747517521202	50.600542982798	365.882550593054	1251.937774810353	62.479247868564	284.788643082781	1314.986141285116	147.039739925638	303.965164638981	1451.044895721151	130.301490879751	276.290590557352	851.636128598399	1111.567916187836	241.574477788143	798.910218094964	857.998676734945	246.228826868971	1201.023719897614	1116.694752705204	765.796808991995	1433.465608163874	1153.284136873428	665.131771945850	
19	22.008285714286	822.526959866055	1004.275056554979	525.278638592340	1002.124080135841	1428.337646826658	338.260437496326	1115.958129059642	1350.375081900036	488.261780030180	1053.367613550849	1426.544574022746	668.447241849476	1021.994466898887	1485.178879383073	494.783166396688	1052.086115655506	940.320984737339	633.514998723461	1027.664680541448	949.682333127915	357.253527994251	1050.278381068392	728.171434594156	608.980746285086	944.598644970258	633.814127709000	667.830530297478	1006.525304943967	568.987605660966	589.121498766620	988.269619543379	484.791109118230	592.499973191170	1101.805965260508	774.424225077634	382.724482174085	1058.559675912766	646.205822932537	297.301830816930	1167.134243221506	591.226561101061	353.490369282633	1198.959176877474	531.550678570398	347.630904116724	1189.249045249280	460.651060935573	336.252201925257	1136.794189357338	325.255270556728	284.499106115461	1237.494502941451	235.944108353979	332.251350415165	952.752634791360	399.946708687547	597.340730103335	871.356884349837	301.520406785508	656.401468864809	906.846081458418	205.041524632390	590.056453772344	763.142572151096	42.681472710886	554.753274968822	935.722131077707	97.402634947545	588.791885843058	847.852889438032	36.619644832676	627.703106330540	1055.669656644239	45.183553065988	613.006723465447	1176.324949583021	48.914163961370	369.458013294631	1248.209291481050	59.800618785043	288.028094881557	1312.240879255057	143.422269324687	306.818670327114	1447.821750228500	125.029459836452	278.607959953967	847.152740517812	1113.438142556717	240.031081943816	788.798213566486	861.130940827131	247.179994670932	1205.076438402974	1119.177444580464	761.923269992968	1432.309325663835	1171.718699126610	658.411462856995	
20	22.019857142857	823.476806163486	1003.032418938676	522.985404282606	1002.275393351075	1427.050356491061	336.172389299686	1115.988821890042	1349.466659255662	486.414291014400	1052.905993430526	1425.794521796589	666.233349635178	1021.654938783930	1484.009294677819	492.652717700847	1052.512477608129	938.874331108262	631.970953873946	1029.129671487557	948.248187433175	355.650330294710	1049.671846088161	726.436578889852	607.354692040376	943.460643877812	632.682167267261	666.361486359045	1004.780558439671	567.367215334184	587.494649944072	985.769370683915	482.979176235460	590.752838942579	1103.180719674071	772.739222752729	382.031257456108	1059.346563167146	643.890930058939	297.708616493606	1167.650287681021	589.113313312717	353.873534989332	1198.861298698485	528.694740862563	348.557311526185	1188.403180525812	457.304244340111	337.479556704756	1134.120348161502	322.411481445352	286.727042551639	1233.569721846105	232.178086008071	334.910655518479	949.336054920540	398.373160387516	595.935787502004	866.950151268754	301.052320238390	655.609677234205	900.560307497618	204.087733471732	589.205396786591	755.046181823482	42.668152973233	554.690827547589	927.621825676375	97.173527732477	588.576881389815	839.695455552251	36.618265772941	627.725121878008	1047.554266906420	44.761884915861	613.056160409473	1169.840456579375	46.968528709948	373.062183814765	1241.541361702599	56.470160330537	291.362121484436	1307.152045105871	138.512477195615	310.047284883029	1442.099309182743	117.444865430748	281.347363250038	842.988280626585	1115.102515181293	238.410253547561	779.961468988113	863.909414642562	247.922978412350	1208.748546905068	1121.524882758924	758.319581531215	1429.847575643646	1188.888749804276	652.179704180313	
21	22.031428571429	824.587330689218	1001.593527996405	520.494677232997	1002.455242990140	1425.645664925929	333.925134322735	1116.071787333134	1348.495761724484	484.429339555578	1052.420349497971	1424.966542328630	663.878138170413	1021.332070792088	1482.749085757827	490.354165558480	1053.095489480599	937.294679320178	630.276564204148	1030.794101914969	946.730647592843	353.956725017480	1049.460509184476	724.598778141451	605.648502841561	942.732342975291	631.372225060641	664.715416950327	1003.564902493186	565.592964921306	585.762716085864	983.763255938516	480.934153568852	588.840397391312	1104.892144031885	770.929280106601	381.286708415430	1060.387951182247	641.522177892876	298.147250361369	1168.331381648556	586.870912982098	354.448471546519	1198.714692792313	525.422592784600	349.724425357190	1187.290813897313	453.496235588932	338.829507709108	1130.617226628898	319.397528479290	288.918281738118	1228.285744410725	227.765821073034	337.698079806512	946.324128887745	396.608061625482	594.361945426031	862.866655575460	300.511183465882	654.672148422634	894.448761095802	203.035918623700	588.249342244912	746.979277455122	42.693562601466	554.606703879081	919.545034238702	96.929484653132	588.316639704952	831.561335690374	36.627569142981	627.706784344139	1039.459812948775	44.250527010423	613.120336427875	1160.933297916533	44.901113129574	376.492594685888	1232.603023015028	52.727330566495	294.624828786254	1300.250643776203	132.643350033560	313.529486544572	1434.453940073445	108.071297672392	284.469769471714	839.191213663783	1116.499817062748	236.737027322193	772.360919095405	866.258241099410	248.407707732697	1212.020409500641	1123.680734442369	755.042188618978	1426.248376537852	1204.682327618253	646.451483112288	
